<svg xmlns="http://www.w3.org/2000/svg" width="300" height="100" viewBox="0 0 300 100">
  <defs>
    <style>
      .cls-1 {
        fill: #fff;
      }

      .cls-1, .cls-2 {
        fill-rule: evenodd;
      }

      .cls-2 {
        fill: #ffd200;
      }
    </style>
  </defs>
  <path id="HOTELCOP" class="cls-1" d="M37.013,44.54V77.472h7.358V63.693H56.443V77.472h7.31V44.54h-7.31V57.195H44.371V44.54H37.013ZM84.431,44C74.86,44,68.656,51.38,68.656,61.25c0,9.381,5.627,16.759,15.246,16.759,9.475,0,15.919-6.547,15.919-17.346C99.821,51.576,94.386,44,84.431,44Zm-0.192,5.912c5.05,0,7.839,5.082,7.839,10.994,0,6.4-2.838,11.189-7.791,11.189C79.381,72.1,76.4,67.553,76.4,61.1,76.4,54.7,79.285,49.914,84.239,49.914Zm25.294,27.558h7.359V50.794h8.849V44.54H100.828v6.254h8.7V77.472ZM148.92,57.488H136.992v-6.84h12.649V44.54H129.634V77.472h20.68V71.364H136.992V63.547H148.92V57.488Zm6.394,19.984h20.248V71.218h-12.89V44.54h-7.358V77.472Zm45.447-6.743a18.061,18.061,0,0,1-6.108,1.075c-6.541,0-10.389-4.153-10.389-10.749,0-7.329,4.521-10.9,10.341-10.9a15.616,15.616,0,0,1,6.156,1.222l1.491-5.912A18.859,18.859,0,0,0,194.268,44c-9.811,0-17.7,6.254-17.7,17.492,0,9.381,5.772,16.466,16.978,16.466a20.605,20.605,0,0,0,8.32-1.417ZM219.515,44c-9.571,0-15.775,7.378-15.775,17.248,0,9.381,5.627,16.759,15.245,16.759,9.475,0,15.92-6.547,15.92-17.346C234.905,51.576,229.47,44,219.515,44Zm-0.193,5.912c5.05,0,7.84,5.082,7.84,10.994,0,6.4-2.838,11.189-7.792,11.189-4.905,0-7.887-4.544-7.887-10.994C211.483,54.7,214.368,49.914,219.322,49.914Zm20.389,27.558h7.262V65.7a18.182,18.182,0,0,0,2.5.147c4.329,0,8.032-1.075,10.533-3.469a10.614,10.614,0,0,0,2.982-7.818,9.689,9.689,0,0,0-3.463-7.622c-2.164-1.759-5.387-2.639-9.908-2.639a59.075,59.075,0,0,0-9.907.684V77.472Zm7.262-27.264a12.3,12.3,0,0,1,3.03-.293c3.655,0,5.723,1.808,5.723,4.837,0,3.371-2.4,5.375-6.3,5.375a11.032,11.032,0,0,1-2.453-.2V50.208Z"/>
  <path id="Forme_1" data-name="Forme 1" class="cls-2" d="M105.5,21l3.46,6.285L116,28.64l-4.9,5.238L111.989,41,105.5,37.952,99.011,41,99.9,33.878,95,28.64l7.038-1.354L105.5,21"/>
  <path id="Forme_1_copie" data-name="Forme 1 copie" class="cls-2" d="M84.5,21l3.46,6.285L95,28.64l-4.9,5.238L90.989,41,84.5,37.952,78.011,41,78.9,33.878,74,28.64l7.038-1.354L84.5,21"/>
  <path id="Forme_1_copie_2" data-name="Forme 1 copie 2" class="cls-2" d="M125.5,21l3.46,6.285L136,28.64l-4.9,5.238L131.989,41,125.5,37.952,119.011,41l0.89-7.122L115,28.64l7.038-1.354L125.5,21"/>
  <path id="Forme_1_copie_3" data-name="Forme 1 copie 3" class="cls-2" d="M146.5,21l3.46,6.285L157,28.64l-4.9,5.238L152.989,41,146.5,37.952,140.011,41l0.89-7.122L136,28.64l7.038-1.354L146.5,21"/>
  <path id="Forme_1_copie_4" data-name="Forme 1 copie 4" class="cls-2" d="M167.5,21l3.46,6.285L178,28.64l-4.9,5.238L173.989,41,167.5,37.952,161.011,41l0.89-7.122L157,28.64l7.038-1.354L167.5,21"/>
</svg>
